<svg xmlns="http://www.w3.org/2000/svg" width="214" height="37" viewBox="0 0 214 37" fill="none">
  <path d="M49.0369 29.3714L47.2543 26.089C46.8451 25.3271 46.436 25.1805 46.436 25.1805V25.1219C46.436 25.1219 46.7867 24.9461 47.3419 24.2134L50.6149 19.7294H47.9849L45.2086 23.6566C44.8872 24.0669 44.3612 24.1841 43.952 24.1841H42.8708V16.3591C42.8708 15.2748 42.4324 14.9817 41.3512 14.9817H39.0425V16.9746H40.0069C40.3284 16.9746 40.5329 17.1504 40.5329 17.5021V31.8625H42.8416V26.177H43.7475C44.1274 26.177 44.6826 26.2356 44.9456 26.6752L47.1374 30.7489C47.6634 31.6867 48.0141 31.8625 49.1246 31.8625H50.7903V29.8697H50.0597C49.4752 29.8697 49.2122 29.7817 49.0369 29.4007V29.3714Z" fill="#333333"/>
  <path d="M54.2791 22.9357C54.2791 21.9686 55.1527 21.4997 56.5212 21.4997C57.2491 21.4997 58.3265 21.8221 58.3265 22.5254V23.1116H60.3939V21.9686C60.3939 20.1222 57.8897 19.624 56.463 19.624C54.0171 19.624 52.0079 20.7084 52.0079 23.0236C52.0079 26.9215 58.5595 26.687 58.5595 28.8557C58.5595 29.9108 57.5986 30.409 56.463 30.409C54.25 30.409 52.8232 28.6213 52.8232 28.6213L51.6294 30.1746C51.6294 30.1746 53.2309 32.2847 56.4338 32.2847C58.938 32.2847 60.8598 30.9072 60.8598 28.7385C60.8598 24.6941 54.3082 25.1924 54.3082 22.9064L54.2791 22.9357Z" fill="#333333"/>
  <path d="M66.1043 14.9817H64.2163V17.5138H66.1043V14.9817Z" fill="#333333"/>
  <path d="M66.2966 29.358V21.3493C66.2966 20.2718 65.8596 19.835 64.7815 19.835H62.538V21.8153H63.4995C63.82 21.8153 64.024 21.99 64.024 22.3395V30.3482C64.024 31.4257 64.461 31.8626 65.5391 31.8626H67.7826V29.8822H66.8211C66.5006 29.8822 66.2966 29.7075 66.2966 29.358Z" fill="#333333"/>
  <path d="M75.2445 19.624C71.8569 19.624 69.251 22.1151 69.251 25.9543C69.251 29.5298 71.828 32.2847 75.592 32.2847C78.4295 32.2847 80.1957 30.5262 80.1957 30.5262L79.2113 28.885C79.2113 28.885 77.7636 30.2918 75.7078 30.2918C73.6521 30.2918 71.7411 28.8264 71.5963 26.2474H80.3115C80.3115 26.2474 80.3694 25.6027 80.3694 25.2803C80.3694 22.1444 78.5743 19.624 75.2156 19.624H75.2445ZM71.7121 24.5476C72.0596 22.5547 73.4783 21.4704 75.2156 21.4704C76.6923 21.4704 77.9373 22.5547 78.0241 24.5476H71.7121Z" fill="#333333"/>
  <path d="M91.5194 21.1121V21.4914H91.4619C91.4619 21.4914 90.6286 19.624 87.6686 19.624C84.3639 19.624 82.4672 22.1917 82.4672 25.6348C82.4672 29.0779 84.4788 31.7915 87.7549 31.7915C89.4791 31.7915 90.5998 31.1204 91.2895 29.9532H91.347C91.347 29.9532 91.2895 30.3325 91.2895 30.7119V31.5289C91.2895 33.9507 89.594 34.8844 87.5537 34.8844C85.772 34.8844 84.3351 34.0674 84.3351 34.0674L83.5592 35.9348C84.7375 36.5184 86.1743 36.9269 87.6112 36.9269C90.5998 36.9269 93.5885 35.4096 93.5885 31.4413V22.3668C93.5885 22.0458 93.7897 21.8999 94.1058 21.8999H95.0541V19.9158H92.8413C91.893 19.9158 91.5194 20.4118 91.5194 21.1413V21.1121ZM88.2146 29.7781C86.0881 29.7781 84.7949 28.0566 84.7949 25.5764C84.7949 23.0963 85.9732 21.6082 88.0135 21.6082C89.8527 21.6082 91.3757 22.5127 91.3757 25.6348C91.3757 28.7569 89.8527 29.7781 88.2146 29.7781Z" fill="#333333"/>
  <path d="M102.816 19.624C99.2129 19.624 96.3128 22.2616 96.3128 25.925C96.3128 29.5884 99.2129 32.2847 102.816 32.2847C106.419 32.2847 109.319 29.6177 109.319 25.925C109.319 22.2323 106.419 19.624 102.816 19.624ZM102.816 30.2625C100.56 30.2625 98.6856 28.4454 98.6856 25.925C98.6856 23.4046 100.56 21.6169 102.816 21.6169C105.072 21.6169 106.976 23.4046 106.976 25.925C106.976 28.4454 105.101 30.2625 102.816 30.2625Z" fill="#333333"/>
  <path d="M126.339 21.1195L124.21 28.2718C124.006 28.8849 123.919 29.5563 123.919 29.5563H123.861C123.861 29.5563 123.744 28.8849 123.54 28.2718L120.916 19.8642H118.788L116.193 28.2718C116.018 28.8849 115.872 29.5563 115.872 29.5563H115.814C115.814 29.5563 115.727 28.8849 115.523 28.2718L113.394 21.1195C113.074 20.0977 112.695 19.835 111.616 19.835H110.158V21.8201H110.479C110.858 21.8201 111.091 21.9077 111.208 22.2872L114.356 31.8626H116.98L119.458 24.1264C119.662 23.5133 119.779 22.8127 119.779 22.8127H119.837C119.837 22.8127 119.983 23.5133 120.158 24.1264L122.665 31.8626H125.26L128.409 22.2872C128.525 21.9077 128.759 21.8201 129.138 21.8201H129.458V19.835H128.03C126.951 19.835 126.543 20.0977 126.222 21.1195H126.339Z" fill="#333333"/>
  <path d="M136.801 19.624C133.197 19.624 130.297 22.2616 130.297 25.925C130.297 29.5884 133.197 32.2847 136.801 32.2847C140.404 32.2847 143.304 29.6177 143.304 25.925C143.304 22.2323 140.404 19.624 136.801 19.624ZM136.801 30.2625C134.545 30.2625 132.67 28.4454 132.67 25.925C132.67 23.4046 134.545 21.6169 136.801 21.6169C139.056 21.6169 140.96 23.4046 140.96 25.925C140.96 28.4454 139.085 30.2625 136.801 30.2625Z" fill="#333333"/>
  <path d="M147.422 22.9357C147.422 21.9686 148.295 21.4997 149.664 21.4997C150.392 21.4997 151.469 21.8221 151.469 22.5254V23.1116H153.537V21.9686C153.537 20.1222 151.033 19.624 149.606 19.624C147.16 19.624 145.151 20.7084 145.151 23.0236C145.151 26.9215 151.702 26.687 151.702 28.8557C151.702 29.9108 150.741 30.409 149.606 30.409C147.393 30.409 145.966 28.6213 145.966 28.6213L144.772 30.1746C144.772 30.1746 146.374 32.2847 149.577 32.2847C152.081 32.2847 154.003 30.9072 154.003 28.7385C154.003 24.6941 147.451 25.1924 147.451 22.9064L147.422 22.9357Z" fill="#333333"/>
  <path d="M162.372 30.2332C160.082 30.2332 158.06 28.6799 158.06 25.925C158.06 23.3753 159.844 21.5876 162.253 21.5876C163.145 21.5876 164.542 21.9686 164.542 22.8185V23.4925H166.684V22.2616C166.684 20.2102 163.74 19.624 162.282 19.624C158.327 19.624 155.681 22.4082 155.681 25.9543C155.681 29.5005 158.387 32.2847 162.223 32.2847C165.464 32.2847 167.219 30.2039 167.219 30.2039L166.208 28.5627C166.208 28.5627 164.691 30.2332 162.401 30.2332H162.372Z" fill="#333333"/>
  <path d="M168.477 17.0368H170.218V29.8075H168.477V31.8625H174.351V29.8075H172.611V17.0368H174.351V14.9817H168.477V17.0368Z" fill="#333333"/>
  <path d="M188.623 14.9817H177.043C175.961 14.9817 175.61 15.334 175.61 16.4202V18.6514H177.745V17.5652C177.745 17.2129 177.949 17.0368 178.271 17.0368H181.663V31.8625H184.061V17.0368H187.453C187.775 17.0368 187.98 17.2129 187.98 17.5652V18.6514H190.085V16.4202C190.085 15.334 189.734 14.9817 188.652 14.9817H188.623Z" fill="#333333"/>
  <path d="M192.602 29.5415H190.295V31.8626H192.602V29.5415Z" fill="#333333"/>
  <path d="M202.507 19.624C199.532 19.624 198.55 21.7569 198.55 21.7569H198.492C198.492 21.7569 198.492 21.4647 198.492 21.1141C198.492 20.3544 198.087 19.887 197.048 19.887H194.91V21.8737H195.863C196.181 21.8737 196.383 22.049 196.383 22.3996V36.7159H198.665V31.3692C198.665 30.7556 198.607 30.3174 198.607 30.3174H198.665C198.665 30.3174 199.676 32.2457 202.305 32.2457C205.425 32.2457 207.707 29.7623 207.707 25.9349C207.707 22.1075 205.656 19.624 202.449 19.624H202.507ZM201.987 30.259C199.763 30.259 198.607 28.1261 198.607 25.9641C198.607 22.8963 200.283 21.64 202.045 21.64C204.009 21.64 205.425 23.3346 205.425 25.9349C205.425 28.5352 203.865 30.259 201.987 30.259Z" fill="#333333"/>
  <path d="M213.044 29.8697C212.725 29.8697 212.522 29.6938 212.522 29.3421V16.5057C212.522 15.4213 212.059 14.9817 211.016 14.9817H208.755V16.9746H209.712C210.03 16.9746 210.233 17.1504 210.233 17.5021V30.3386C210.233 31.4229 210.668 31.8625 211.74 31.8625H214V29.8697H213.044Z" fill="#333333"/>
  <path d="M9.05347 22.1002L23.1182 3.71505L20.8332 3.72297L7.2412 21.0308V35.1781H1.81227V0H0V37H9.05347V22.1002Z" fill="#333333"/>
  <path d="M30.3357 37L17.705 19.7793L16.5231 21.2368L26.7112 35.1781H24.7098L14.2617 21.0308H14.238L30.3357 0H19.0209L3.68749 20.0486H3.62445V33.7681H5.42884V20.7536L19.9112 1.82188H26.656L12.0082 21.0308L22.4248 35.1781H20.1476L10.8656 22.5121V25.6014L19.2021 37H30.3357Z" fill="#333333"/>
  <path d="M5.42884 1.82188H7.24111V12.5789L9.05338 10.3134V0H3.62445V17.1098L5.42884 14.8444V1.82188Z" fill="#333333"/>
</svg>