<svg xmlns="http://www.w3.org/2000/svg" width="48" height="48" viewBox="0 0 48 48" fill="none">
  <path d="M8 8C8 5.79086 9.79086 4 12 4H28C28.5304 4 29.0391 4.21071 29.4142 4.58579L39.4142 14.5858C39.7893 14.9609 40 15.4696 40 16V40C40 42.2091 38.2091 44 36 44H12C9.79086 44 8 42.2091 8 40V8ZM35.1716 16L28 8.82843V16H35.1716ZM24 8L12 8V40H36V20H26C24.8954 20 24 19.1046 24 18V8ZM31.4142 24.5858C32.1953 25.3668 32.1953 26.6332 31.4142 27.4142L23.4142 35.4142C22.6332 36.1953 21.3668 36.1953 20.5858 35.4142L16.5858 31.4142C15.8047 30.6332 15.8047 29.3668 16.5858 28.5858C17.3668 27.8047 18.6332 27.8047 19.4142 28.5858L22 31.1716L28.5858 24.5858C29.3668 23.8047 30.6332 23.8047 31.4142 24.5858Z" fill="#E84B3A"/>
</svg>