<svg xmlns="http://www.w3.org/2000/svg" width="40" height="40" viewBox="0 0 40 40" fill="none">
  <path d="M33.175 4.375H5.575C4.91125 4.375 4.375 4.91125 4.375 5.575V33.175C4.375 33.8388 4.91125 34.375 5.575 34.375H33.175C33.8388 34.375 34.375 33.8388 34.375 33.175V5.575C34.375 4.91125 33.8388 4.375 33.175 4.375ZM29.71 13.1313H27.3138C25.435 13.1313 25.0713 14.0238 25.0713 15.3363V18.2275H29.5563L28.9713 22.7537H25.0713V34.375H20.395V22.7575H16.4838V18.2275H20.395V14.89C20.395 11.0163 22.7613 8.905 26.2188 8.905C27.8763 8.905 29.2975 9.02875 29.7138 9.085V13.1313H29.71Z" fill="white"/>
</svg>