<svg xmlns="http://www.w3.org/2000/svg" width="48" height="48" viewBox="0 0 48 48" fill="none">
  <path d="M24 9.05529C19.2884 4.83379 12.0425 4.98693 7.51472 9.51472C2.82843 14.201 2.82843 21.799 7.51472 26.4853L21.1716 40.1421C22.7337 41.7042 25.2663 41.7042 26.8284 40.1421L40.4853 26.4853C45.1716 21.799 45.1716 14.201 40.4853 9.51472C35.9575 4.98693 28.7117 4.83379 24 9.05529ZM21.6569 12.3431L22.5858 13.2721C23.3668 14.0531 24.6332 14.0531 25.4142 13.2721L26.3431 12.3431C29.4673 9.21895 34.5327 9.21895 37.6569 12.3431C40.7811 15.4673 40.7811 20.5327 37.6569 23.6569L24 37.3137L10.3431 23.6569C7.21895 20.5327 7.21895 15.4673 10.3431 12.3431C13.4673 9.21895 18.5327 9.21895 21.6569 12.3431Z" fill="#E84B3A"/>
</svg>