<svg xmlns="http://www.w3.org/2000/svg" width="198" height="209" viewBox="0 0 198 209" fill="none">
  <g clip-path="url(#clip0_1_521)">
    <path d="M11.2541 200.594L9.2468 196.902C8.78611 196.045 8.32541 195.88 8.32541 195.88V195.814C8.32541 195.814 8.72029 195.616 9.34552 194.792L13.0311 189.748H10.0695L6.94333 194.166C6.58135 194.627 5.98903 194.759 5.52834 194.759H4.31079V185.957C4.31079 184.738 3.81718 184.408 2.59963 184.408H0V186.65H1.08592C1.4479 186.65 1.67825 186.847 1.67825 187.243V203.396H4.27788V197.001H5.29799C5.72578 197.001 6.35101 197.067 6.64717 197.561L9.11517 202.143C9.7075 203.198 10.1024 203.396 11.3528 203.396H13.2285V201.154H12.4059C11.7477 201.154 11.4516 201.055 11.2541 200.627V200.594Z" fill="#1A1A1A"/>
    <path d="M17.3419 193.144C17.3419 192.056 18.3291 191.528 19.8757 191.528C20.6984 191.528 21.9159 191.891 21.9159 192.682V193.342H24.2523V192.056C24.2523 189.979 21.4223 189.419 19.8099 189.419C17.0457 189.419 14.7751 190.638 14.7751 193.243C14.7751 197.627 22.1792 197.363 22.1792 199.803C22.1792 200.99 21.0932 201.55 19.8099 201.55C17.309 201.55 15.6965 199.539 15.6965 199.539L14.3474 201.286C14.3474 201.286 16.1572 203.66 19.777 203.66C22.6069 203.66 24.7788 202.11 24.7788 199.671C24.7788 195.122 17.3748 195.682 17.3748 193.111L17.3419 193.144Z" fill="#1A1A1A"/>
    <path d="M30.6033 184.408H28.2669V187.111H30.6033V184.408Z" fill="#1A1A1A"/>
    <path d="M30.7678 200.528V191.462C30.7678 190.243 30.2742 189.748 29.0566 189.748H26.5228V191.99H27.6088C27.9707 191.99 28.2011 192.188 28.2011 192.583V201.649C28.2011 202.868 28.6947 203.363 29.9122 203.363H32.446V201.121H31.3601C30.9981 201.121 30.7678 200.924 30.7678 200.528Z" fill="#1A1A1A"/>
    <path d="M40.936 189.452C37.0859 189.452 34.1243 192.254 34.1243 196.572C34.1243 200.594 37.053 203.693 41.3309 203.693C44.5558 203.693 46.5631 201.715 46.5631 201.715L45.4443 199.869C45.4443 199.869 43.7989 201.451 41.4625 201.451C39.1262 201.451 36.9543 199.803 36.7898 196.902H46.6947C46.6947 196.902 46.7605 196.177 46.7605 195.814C46.7605 192.287 44.7203 189.452 40.9031 189.452H40.936ZM36.9214 194.99C37.3163 192.748 38.9287 191.528 40.9031 191.528C42.5814 191.528 43.9964 192.748 44.0951 194.99H36.9214Z" fill="#1A1A1A"/>
    <path d="M59.3309 191.133V191.561H59.2651C59.2651 191.561 58.3108 189.452 54.9214 189.452C51.1371 189.452 48.9653 192.353 48.9653 196.243C48.9653 200.132 51.2687 203.198 55.0201 203.198C56.9945 203.198 58.2779 202.44 59.0676 201.121H59.1335C59.1335 201.121 59.0676 201.55 59.0676 201.978V202.901C59.0676 205.638 57.1261 206.693 54.7898 206.693C52.7495 206.693 51.1042 205.769 51.1042 205.769L50.2157 207.879C51.5649 208.539 53.2102 209 54.8556 209C58.2779 209 61.7002 207.286 61.7002 202.803V192.55C61.7002 192.188 61.9305 192.023 62.2925 192.023H63.3784V189.781H60.8446C59.7587 189.781 59.3309 190.342 59.3309 191.166V191.133ZM55.5466 200.924C53.1115 200.924 51.6307 198.979 51.6307 196.177C51.6307 193.375 52.9799 191.693 55.3163 191.693C57.4223 191.693 59.1664 192.715 59.1664 196.243C59.1664 199.77 57.4223 200.924 55.5466 200.924Z" fill="#1A1A1A"/>
    <path d="M72.1975 189.452C68.1499 189.452 64.8922 192.419 64.8922 196.539C64.8922 200.66 68.1499 203.693 72.1975 203.693C76.245 203.693 79.5028 200.693 79.5028 196.539C79.5028 192.386 76.245 189.452 72.1975 189.452ZM72.1975 201.418C69.6636 201.418 67.5576 199.374 67.5576 196.539C67.5576 193.704 69.6636 191.693 72.1975 191.693C74.7313 191.693 76.8702 193.704 76.8702 196.539C76.8702 199.374 74.7642 201.418 72.1975 201.418Z" fill="#1A1A1A"/>
    <path d="M98.6874 191.232L96.2852 199.308C96.0548 200 95.9561 200.759 95.9561 200.759H95.8903C95.8903 200.759 95.7587 200 95.5283 199.308L92.5667 189.814H90.1645L87.2358 199.308C87.0384 200 86.8739 200.759 86.8739 200.759H86.808C86.808 200.759 86.7093 200 86.479 199.308L84.0768 191.232C83.7148 190.078 83.287 189.781 82.0695 189.781H80.4241V192.023H80.7861C81.2139 192.023 81.4771 192.122 81.6088 192.55L85.1627 203.363H88.1243L90.9214 194.627C91.1517 193.935 91.2834 193.144 91.2834 193.144H91.3492C91.3492 193.144 91.5137 193.935 91.7112 194.627L94.5411 203.363H97.4698L101.024 192.55C101.155 192.122 101.419 192.023 101.846 192.023H102.208V189.781H100.596C99.3784 189.781 98.9177 190.078 98.5558 191.232H98.6874Z" fill="#1A1A1A"/>
    <path d="M110.6 189.452C106.552 189.452 103.294 192.419 103.294 196.539C103.294 200.66 106.552 203.693 110.6 203.693C114.647 203.693 117.905 200.693 117.905 196.539C117.905 192.386 114.647 189.452 110.6 189.452ZM110.6 201.418C108.066 201.418 105.96 199.374 105.96 196.539C105.96 193.704 108.066 191.693 110.6 191.693C113.133 191.693 115.272 193.704 115.272 196.539C115.272 199.374 113.166 201.418 110.6 201.418Z" fill="#1A1A1A"/>
    <path d="M122.644 193.144C122.644 192.056 123.631 191.528 125.177 191.528C126 191.528 127.218 191.891 127.218 192.682V193.342H129.554V192.056C129.554 189.979 126.724 189.419 125.112 189.419C122.347 189.419 120.077 190.638 120.077 193.243C120.077 197.627 127.481 197.363 127.481 199.803C127.481 200.99 126.395 201.55 125.112 201.55C122.611 201.55 120.998 199.539 120.998 199.539L119.649 201.286C119.649 201.286 121.459 203.66 125.079 203.66C127.909 203.66 130.08 202.11 130.08 199.671C130.08 195.122 122.676 195.682 122.676 193.111L122.644 193.144Z" fill="#1A1A1A"/>
    <path d="M139.492 201.385C136.958 201.385 134.72 199.638 134.72 196.539C134.72 193.671 136.695 191.66 139.36 191.66C140.347 191.66 141.894 192.089 141.894 193.045V193.803H144.263V192.419C144.263 190.111 141.006 189.452 139.393 189.452C135.016 189.452 132.088 192.583 132.088 196.572C132.088 200.561 135.082 203.693 139.327 203.693C142.914 203.693 144.856 201.352 144.856 201.352L143.737 199.506C143.737 199.506 142.059 201.385 139.525 201.385H139.492Z" fill="#1A1A1A"/>
    <path d="M146.534 186.716H148.377V201.055H146.534V203.363H152.753V201.055H150.91V186.716H152.753V184.408H146.534V186.716Z" fill="#1A1A1A"/>
    <path d="M168.943 184.408H155.912C154.695 184.408 154.3 184.804 154.3 186.023V188.529H156.702V187.309C156.702 186.913 156.932 186.716 157.294 186.716H161.112V203.363H163.81V186.716H167.627C167.989 186.716 168.219 186.913 168.219 187.309V188.529H170.589V186.023C170.589 184.804 170.194 184.408 168.976 184.408H168.943Z" fill="#1A1A1A"/>
    <path d="M173.649 200.594H170.984V203.363H173.649V200.594Z" fill="#1A1A1A"/>
    <path d="M184.739 189.452C181.349 189.452 180.23 191.858 180.23 191.858H180.165C180.165 191.858 180.165 191.528 180.165 191.133C180.165 190.276 179.704 189.748 178.519 189.748H176.084V191.99H177.17C177.532 191.99 177.762 192.188 177.762 192.583V208.736H180.362V202.704C180.362 202.011 180.296 201.517 180.296 201.517H180.362C180.362 201.517 181.514 203.693 184.508 203.693C188.062 203.693 190.662 200.891 190.662 196.572C190.662 192.254 188.325 189.452 184.673 189.452H184.739ZM184.146 201.451C181.612 201.451 180.296 199.045 180.296 196.605C180.296 193.144 182.205 191.726 184.212 191.726C186.45 191.726 188.062 193.638 188.062 196.572C188.062 199.506 186.285 201.451 184.146 201.451Z" fill="#1A1A1A"/>
    <path d="M196.914 201.121C196.552 201.121 196.322 200.924 196.322 200.528V186.089C196.322 184.869 195.795 184.375 194.611 184.375H192.044V186.617H193.13C193.492 186.617 193.722 186.814 193.722 187.21V201.649C193.722 202.869 194.216 203.363 195.433 203.363H198V201.121H196.914Z" fill="#1A1A1A"/>
    <path d="M72.7568 91.9732L131.495 15.4607L121.952 15.4937L65.1883 87.5229V146.399H42.5155V0H34.947V153.981H72.7568V91.9732Z" fill="#1A1A1A"/>
    <path d="M161.638 153.981L108.888 82.3144L103.952 88.38L146.501 146.399H138.143L94.5082 87.5229H94.4095L161.638 0H114.384L50.3474 83.4352H50.0841V140.531H57.6198V86.3691L118.102 7.58202H146.271L85.0969 87.5229L128.6 146.399H119.09L80.3254 93.6874V106.544L115.141 153.981H161.638Z" fill="#1A1A1A"/>
    <path d="M57.6198 7.58202H65.1883V52.3489L72.7569 42.9208V0H50.0841V71.205L57.6198 61.777V7.58202Z" fill="#1A1A1A"/>
  </g>
  <defs>
    <clipPath id="clip0_1_521">
      <rect width="198" height="209" fill="white"/>
    </clipPath>
  </defs>
</svg>