<svg xmlns="http://www.w3.org/2000/svg" width="160" height="26" viewBox="0 0 160 26" fill="none">
  <path d="M36.6631 20.6395L35.3303 18.333C35.0244 17.7976 34.7185 17.6946 34.7185 17.6946V17.6534C34.7185 17.6534 34.9807 17.5298 35.3958 17.015L37.8429 13.8641H35.8765L33.8008 16.6237C33.5605 16.912 33.1672 16.9944 32.8613 16.9944H32.0529V11.4958C32.0529 10.7338 31.7252 10.5278 30.9168 10.5278H29.1907V11.9282H29.9117C30.152 11.9282 30.305 12.0518 30.305 12.2989V22.39H32.0311V18.3948H32.7084C32.9924 18.3948 33.4076 18.436 33.6042 18.7449L35.2429 21.6075C35.6362 22.2665 35.8984 22.39 36.7286 22.39H37.974V20.9896H37.4278C36.9908 20.9896 36.7942 20.9279 36.6631 20.6601V20.6395Z" fill="white"/>
  <path d="M40.5825 16.1172C40.5825 15.4376 41.2357 15.1081 42.2589 15.1081C42.8031 15.1081 43.6086 15.3346 43.6086 15.8289V16.2407H45.1543V15.4376C45.1543 14.1401 43.2821 13.79 42.2153 13.79C40.3866 13.79 38.8845 14.552 38.8845 16.179C38.8845 18.918 43.7828 18.7532 43.7828 20.2772C43.7828 21.0186 43.0644 21.3687 42.2153 21.3687C40.5608 21.3687 39.494 20.1124 39.494 20.1124L38.6014 21.2039C38.6014 21.2039 39.7988 22.6867 42.1936 22.6867C44.0658 22.6867 45.5027 21.7188 45.5027 20.1948C45.5027 17.3528 40.6043 17.7029 40.6043 16.0966L40.5825 16.1172Z" fill="white"/>
  <path d="M49.4238 10.5278H48.0122V12.3072H49.4238V10.5278Z" fill="white"/>
  <path d="M49.5676 20.6299V15.0021C49.5676 14.245 49.2408 13.938 48.4348 13.938H46.7574V15.3296H47.4763C47.7159 15.3296 47.8684 15.4524 47.8684 15.6979V21.3257C47.8684 22.0828 48.1952 22.3898 49.0012 22.3898H50.6786V20.9982H49.9597C49.7201 20.9982 49.5676 20.8755 49.5676 20.6299Z" fill="white"/>
  <path d="M56.2576 13.79C53.7248 13.79 51.7765 15.5405 51.7765 18.2384C51.7765 20.7509 53.7031 22.6867 56.5174 22.6867C58.6389 22.6867 59.9594 21.451 59.9594 21.451L59.2234 20.2978C59.2234 20.2978 58.141 21.2863 56.604 21.2863C55.067 21.2863 53.6382 20.2566 53.5299 18.4443H60.046C60.046 18.4443 60.0893 17.9912 60.0893 17.7647C60.0893 15.5611 58.7471 13.79 56.2359 13.79H56.2576ZM53.6165 17.2499C53.8763 15.8495 54.9371 15.0875 56.2359 15.0875C57.34 15.0875 58.2708 15.8495 58.3358 17.2499H53.6165Z" fill="white"/>
  <path d="M68.4257 14.8357V15.1023H68.3828C68.3828 15.1023 67.7597 13.79 65.5467 13.79C63.0758 13.79 61.6577 15.5944 61.6577 18.0138C61.6577 20.4333 63.1617 22.3401 65.6111 22.3401C66.9003 22.3401 67.7382 21.8685 68.2539 21.0484H68.2968C68.2968 21.0484 68.2539 21.3149 68.2539 21.5815V22.1556C68.2539 23.8574 66.9862 24.5135 65.4607 24.5135C64.1286 24.5135 63.0543 23.9394 63.0543 23.9394L62.4742 25.2517C63.3551 25.6618 64.4294 25.9488 65.5037 25.9488C67.7382 25.9488 69.9727 24.8826 69.9727 22.0941V15.7174C69.9727 15.4919 70.1231 15.3893 70.3595 15.3893H71.0685V13.9951H69.4141C68.7051 13.9951 68.4257 14.3436 68.4257 14.8562V14.8357ZM65.9549 20.9254C64.3649 20.9254 63.3981 19.7156 63.3981 17.9728C63.3981 16.23 64.279 15.1843 65.8045 15.1843C67.1796 15.1843 68.3183 15.8199 68.3183 18.0138C68.3183 20.2077 67.1796 20.9254 65.9549 20.9254Z" fill="white"/>
  <path d="M76.8718 13.79C74.1778 13.79 72.0096 15.6435 72.0096 18.2178C72.0096 20.792 74.1778 22.6867 76.8718 22.6867C79.5657 22.6867 81.734 20.8126 81.734 18.2178C81.734 15.6229 79.5657 13.79 76.8718 13.79ZM76.8718 21.2657C75.1853 21.2657 73.7836 19.9889 73.7836 18.2178C73.7836 16.4467 75.1853 15.1904 76.8718 15.1904C78.5582 15.1904 79.9818 16.4467 79.9818 18.2178C79.9818 19.9889 78.5801 21.2657 76.8718 21.2657Z" fill="white"/>
  <path d="M94.4589 14.8406L92.8677 19.8666C92.7151 20.2974 92.6497 20.7692 92.6497 20.7692H92.6061C92.6061 20.7692 92.5189 20.2974 92.3663 19.8666L90.4046 13.9585H88.8134L86.8734 19.8666C86.7426 20.2974 86.6337 20.7692 86.6337 20.7692H86.5901C86.5901 20.7692 86.5247 20.2974 86.3721 19.8666L84.7809 14.8406C84.5411 14.1226 84.2578 13.938 83.4513 13.938H82.3614V15.333H82.6012C82.8845 15.333 83.0589 15.3945 83.1461 15.6612L85.5002 22.3898H87.462L89.3147 16.9536C89.4673 16.5228 89.5545 16.0304 89.5545 16.0304H89.5981C89.5981 16.0304 89.7071 16.5228 89.8379 16.9536L91.7124 22.3898H93.6524L96.0065 15.6612C96.0937 15.3945 96.2681 15.333 96.5514 15.333H96.7912V13.938H95.7231C94.9166 13.938 94.6115 14.1226 94.3717 14.8406H94.4589Z" fill="white"/>
  <path d="M102.281 13.79C99.5869 13.79 97.4186 15.6435 97.4186 18.2178C97.4186 20.792 99.5869 22.6867 102.281 22.6867C104.975 22.6867 107.143 20.8126 107.143 18.2178C107.143 15.6229 104.975 13.79 102.281 13.79ZM102.281 21.2657C100.594 21.2657 99.1926 19.9889 99.1926 18.2178C99.1926 16.4467 100.594 15.1904 102.281 15.1904C103.967 15.1904 105.391 16.4467 105.391 18.2178C105.391 19.9889 103.989 21.2657 102.281 21.2657Z" fill="white"/>
  <path d="M110.222 16.1172C110.222 15.4376 110.875 15.1081 111.898 15.1081C112.443 15.1081 113.248 15.3346 113.248 15.8289V16.2407H114.794V15.4376C114.794 14.1401 112.922 13.79 111.855 13.79C110.026 13.79 108.524 14.552 108.524 16.179C108.524 18.918 113.422 18.7532 113.422 20.2772C113.422 21.0186 112.704 21.3687 111.855 21.3687C110.2 21.3687 109.133 20.1124 109.133 20.1124L108.241 21.2039C108.241 21.2039 109.438 22.6867 111.833 22.6867C113.705 22.6867 115.142 21.7188 115.142 20.1948C115.142 17.3528 110.244 17.7029 110.244 16.0966L110.222 16.1172Z" fill="white"/>
  <path d="M121.399 21.2451C119.687 21.2451 118.176 20.1536 118.176 18.2178C118.176 16.4261 119.51 15.1698 121.31 15.1698C121.977 15.1698 123.022 15.4376 123.022 16.0348V16.5085H124.623V15.6435C124.623 14.2019 122.422 13.79 121.333 13.79C118.376 13.79 116.397 15.7465 116.397 18.2384C116.397 20.7303 118.42 22.6867 121.288 22.6867C123.712 22.6867 125.023 21.2245 125.023 21.2245L124.267 20.0712C124.267 20.0712 123.134 21.2451 121.422 21.2451H121.399Z" fill="white"/>
  <path d="M125.964 11.9719H127.266V20.946H125.964V22.39H130.356V20.946H129.055V11.9719H130.356V10.5278H125.964V11.9719Z" fill="white"/>
  <path d="M141.026 10.5278H132.369C131.56 10.5278 131.297 10.7754 131.297 11.5387V13.1066H132.893V12.3433C132.893 12.0957 133.046 11.9719 133.287 11.9719H135.823V22.39H137.616V11.9719H140.152C140.392 11.9719 140.545 12.0957 140.545 12.3433V13.1066H142.12V11.5387C142.12 10.7754 141.857 10.5278 141.048 10.5278H141.026Z" fill="white"/>
  <path d="M144.002 20.7588H142.276V22.3898H144.002V20.7588Z" fill="white"/>
  <path d="M151.407 13.79C149.183 13.79 148.448 15.2888 148.448 15.2888H148.405C148.405 15.2888 148.405 15.0835 148.405 14.8371C148.405 14.3033 148.103 13.9748 147.325 13.9748H145.727V15.3709H146.44C146.677 15.3709 146.829 15.4941 146.829 15.7405V25.8005H148.535V22.0434C148.535 21.6123 148.492 21.3043 148.492 21.3043H148.535C148.535 21.3043 149.291 22.6593 151.256 22.6593C153.588 22.6593 155.295 20.9142 155.295 18.2247C155.295 15.5352 153.761 13.79 151.364 13.79H151.407ZM151.018 21.2632C149.355 21.2632 148.492 19.7645 148.492 18.2452C148.492 16.0895 149.744 15.2067 151.062 15.2067C152.53 15.2067 153.588 16.3974 153.588 18.2247C153.588 20.0519 152.422 21.2632 151.018 21.2632Z" fill="white"/>
  <path d="M159.285 20.9896C159.047 20.9896 158.895 20.8661 158.895 20.619V11.5987C158.895 10.8367 158.549 10.5278 157.769 10.5278H156.079V11.9282H156.794C157.032 11.9282 157.184 12.0518 157.184 12.2989V21.3191C157.184 22.0811 157.509 22.39 158.31 22.39H160V20.9896H159.285Z" fill="white"/>
  <path d="M6.76895 15.5299L17.2847 2.61058L15.5762 2.61614L5.41398 14.7784V24.7198H1.35497V0H0V26H6.76895V15.5299Z" fill="white"/>
  <path d="M22.6809 26L13.2374 13.899L12.3537 14.9231L19.971 24.7198H18.4746L10.6629 14.7784H10.6453L22.6809 0H14.2212L2.757 14.0882H2.70987V23.729H4.05895V14.5836L14.8869 1.28024H19.9297L8.97807 14.7784L16.7662 24.7198H15.0636L8.12385 15.8193V17.9902L14.3567 26H22.6809Z" fill="white"/>
  <path d="M4.05895 1.28024H5.41391V8.83922L6.76888 7.24727V0H2.70987V12.0231L4.05895 10.4312V1.28024Z" fill="white"/>
</svg>